<?xml version="1.0" encoding="utf-8"?>
<!-- Generator: Adobe Illustrator 16.0.3, SVG Export Plug-In . SVG Version: 6.00 Build 0)  -->
<!DOCTYPE svg PUBLIC "-//W3C//DTD SVG 1.1//EN" "http://www.w3.org/Graphics/SVG/1.1/DTD/svg11.dtd">
<svg version="1.1" xmlns="http://www.w3.org/2000/svg" xmlns:xlink="http://www.w3.org/1999/xlink" x="0px" y="0px" width="128px"
	 height="128px" viewBox="0 0 128 128" enable-background="new 0 0 128 128" xml:space="preserve">
<g id="レイヤー_2">
	<circle fill="#FF9CA6" cx="64" cy="64" r="64"/>
</g>
<g id="レイヤー_5">
	<path fill="#FDF6CF" d="M91.968,49.261C91.299,72.976,68,90,48,90c-9.638,0-18.546-1.107-25.795-6.364
		C29.146,94.681,41.236,102,55,102c21.539,0,39-17.908,39-40C94,57.544,93.279,53.264,91.968,49.261z"/>
</g>
<g id="レイヤー_4">
	<path fill="#EC6D81" d="M46,13c31,0,40,26,40,39c0,17-15,39-39,39c-18,0-25-7-25-7s12,21,48,21c28,0,46-21,46-21s-14,39-56,39
		C22,123,0,90.728,0,64C0,48,12,13,46,13z"/>
</g>
<g id="レイヤー_6">
	<circle fill="#FFFFFF" cx="39" cy="47" r="19"/>
	<g>
	</g>
	<g>
	</g>
	<g>
	</g>
	<g>
	</g>
	<g>
	</g>
	<g>
	</g>
</g>
</svg>
